HIERARCHY
ROOT Hips
{
	OFFSET 0.000000 89.005402 0.000000
	CHANNELS 6 Xposition Yposition Zposition Xrotation Yrotation Zrotation
	JOINT Spine
	{
		OFFSET 0.116900 10.681000 0.373400
		CHANNELS 3 Xrotation Yrotation Zrotation
		JOINT Spine1
		{
			OFFSET 0.000000 13.840401 0.053500
			CHANNELS 3 Xrotation Yrotation Zrotation
			JOINT Spine2
			{
				OFFSET 0.000000 14.712700 -0.366200
				CHANNELS 3 Xrotation Yrotation Zrotation
				JOINT Neck
				{
					OFFSET 0.000000 35.415497 -3.314200
					CHANNELS 3 Xrotation Yrotation Zrotation
					JOINT Head
					{
						OFFSET 0.000000 16.899200 1.218300
						CHANNELS 3 Xrotation Yrotation Zrotation
						JOINT HeadTop_End
						{
							OFFSET 0.000000 22.206207 2.192500
							CHANNELS 3 Xrotation Yrotation Zrotation
							End Site
							{
								OFFSET 0.000000 22.314178 0.000000
							}
						}
					}
				}
				JOINT LeftShoulder
				{
					OFFSET 12.896400 26.716293 -4.548400
					CHANNELS 3 Xrotation Yrotation Zrotation
					JOINT LeftArm
					{
						OFFSET 19.027000 -4.857010 -1.718400
						CHANNELS 3 Xrotation Yrotation Zrotation
						JOINT LeftForeArm
						{
							OFFSET 24.179897 0.000000 0.000000
							CHANNELS 3 Xrotation Yrotation Zrotation
							JOINT LeftHand
							{
								OFFSET 27.156403 0.000000 0.000000
								CHANNELS 3 Xrotation Yrotation Zrotation
								JOINT LeftHandIndex1
								{
									OFFSET 16.441200 0.000000 0.000000
									CHANNELS 3 Xrotation Yrotation Zrotation
									JOINT LeftHandIndex2
									{
										OFFSET 4.821899 0.000000 0.000000
										CHANNELS 3 Xrotation Yrotation Zrotation
										JOINT LeftHandIndex3
										{
											OFFSET 6.386497 0.000000 0.000000
											CHANNELS 3 Xrotation Yrotation Zrotation
											JOINT LeftHandIndex4
											{
												OFFSET 5.188988 0.000000 0.000000
												CHANNELS 3 Xrotation Yrotation Zrotation
												End Site
												{
													OFFSET -0.178703 5.185913 0.000177
												}
											}
										}
									}
								}
								JOINT LeftHandThumb1
								{
									OFFSET 6.534897 -5.032593 5.900300
									CHANNELS 3 Xrotation Yrotation Zrotation
									JOINT LeftHandThumb2
									{
										OFFSET 3.818176 -2.204422 2.204423
										CHANNELS 3 Xrotation Yrotation Zrotation
										JOINT LeftHandThumb3
										{
											OFFSET 3.252098 -1.877594 1.877601
											CHANNELS 3 Xrotation Yrotation Zrotation
											JOINT LeftHandThumb4
											{
												OFFSET 5.251778 -3.032120 3.032117
												CHANNELS 3 Xrotation Yrotation Zrotation
												End Site
												{
													OFFSET 0.000023 6.780014 0.000000
												}
											}
										}
									}
								}
							}
						}
					}
				}
				JOINT RightShoulder
				{
					OFFSET -12.896300 26.716293 -4.548400
					CHANNELS 3 Xrotation Yrotation Zrotation
					JOINT RightArm
					{
						OFFSET -19.027000 -4.857010 -1.718400
						CHANNELS 3 Xrotation Yrotation Zrotation
						JOINT RightForeArm
						{
							OFFSET -24.179897 0.000000 0.000000
							CHANNELS 3 Xrotation Yrotation Zrotation
							JOINT RightHand
							{
								OFFSET -27.156403 0.000000 0.000000
								CHANNELS 3 Xrotation Yrotation Zrotation
								JOINT RightHandThumb1
								{
									OFFSET -6.591202 -4.852203 5.988100
									CHANNELS 3 Xrotation Yrotation Zrotation
									JOINT RightHandThumb2
									{
										OFFSET -3.818176 -2.204422 2.204423
										CHANNELS 3 Xrotation Yrotation Zrotation
										JOINT RightHandThumb3
										{
											OFFSET -3.252098 -1.877594 1.877601
											CHANNELS 3 Xrotation Yrotation Zrotation
											JOINT RightHandThumb4
											{
												OFFSET -5.251778 -3.032120 3.032117
												CHANNELS 3 Xrotation Yrotation Zrotation
												End Site
												{
													OFFSET -0.000023 6.780014 0.000000
												}
											}
										}
									}
								}
								JOINT RightHandIndex1
								{
									OFFSET -16.029404 0.000000 0.000000
									CHANNELS 3 Xrotation Yrotation Zrotation
									JOINT RightHandIndex2
									{
										OFFSET -5.213303 0.000000 0.000000
										CHANNELS 3 Xrotation Yrotation Zrotation
										JOINT RightHandIndex3
										{
											OFFSET -6.386528 0.000000 0.000000
											CHANNELS 3 Xrotation Yrotation Zrotation
											JOINT RightHandIndex4
											{
												OFFSET -5.189026 0.000000 0.000000
												CHANNELS 3 Xrotation Yrotation Zrotation
												End Site
												{
													OFFSET 0.236702 5.183624 0.001972
												}
											}
										}
									}
								}
							}
						}
					}
				}
			}
		}
	}
	JOINT LeftUpLeg
	{
		OFFSET 14.073000 -7.904099 -1.463000
		CHANNELS 3 Xrotation Yrotation Zrotation
		JOINT LeftLeg
		{
			OFFSET -0.109806 -34.073280 4.093200
			CHANNELS 3 Xrotation Yrotation Zrotation
			JOINT LeftFoot
			{
				OFFSET 0.109806 -29.899420 -6.319000
				CHANNELS 3 Xrotation Yrotation Zrotation
				JOINT LeftToeBase
				{
					OFFSET 1.551100 -14.988700 20.535801
					CHANNELS 3 Xrotation Yrotation Zrotation
					JOINT LeftToe_End
					{
						OFFSET 0.221200 0.570800 13.248301
						CHANNELS 3 Xrotation Yrotation Zrotation
						End Site
						{
							OFFSET 0.000000 13.262435 0.000000
						}
					}
				}
			}
		}
	}
	JOINT RightUpLeg
	{
		OFFSET -13.839300 -7.904099 -1.463000
		CHANNELS 3 Xrotation Yrotation Zrotation
		JOINT RightLeg
		{
			OFFSET 0.109694 -34.073219 4.093300
			CHANNELS 3 Xrotation Yrotation Zrotation
			JOINT RightFoot
			{
				OFFSET -0.109694 -29.899384 -6.319200
				CHANNELS 3 Xrotation Yrotation Zrotation
				JOINT RightToeBase
				{
					OFFSET -1.551100 -14.988700 20.535801
					CHANNELS 3 Xrotation Yrotation Zrotation
					JOINT RightToe_End
					{
						OFFSET -0.221200 0.570900 13.248299
						CHANNELS 3 Xrotation Yrotation Zrotation
						End Site
						{
							OFFSET 0.000000 13.262440 0.000000
						}
					}
				}
			}
		}
	}
}
MOTION
Frames: 4
Frame Time: 0.033333
2.469287 72.193672 -3.478050 -8.689054 -47.976178 -7.396410 2.779243 1.249937 0.366265 5.697723 2.625934 -1.981809 5.676556 2.663694 -1.994696 13.323373 4.383900 0.550920 -12.666440 28.324641 -5.016780 0.000000 0.000000 0.000000 0.583523 -1.552608 -2.106528 -31.176907 -0.931813 -40.412771 0.000002 -69.903653 0.000008 9.504011 -13.303544 15.999761 5.246494 6.685103 -76.225519 8.439465 6.703248 -103.118795 2.586196 5.381274 -51.311834 -0.000001 -0.000001 0.000002 -0.392488 20.153848 5.325747 -0.292232 21.311476 8.578929 -2.225102 8.327723 6.202481 0.000003 0.000000 -0.000001 0.561322 1.854952 3.704435 -39.102737 46.560474 55.567117 0.000450 87.908544 -0.000744 -12.955267 13.787201 -13.216869 8.531615 -12.277394 5.179318 -1.921770 -26.072803 -17.001468 -3.113374 -8.655607 -9.962470 -0.000001 0.000002 0.000001 0.112229 -1.246758 10.287155 0.024411 -0.583375 4.792833 0.006124 -0.291956 2.396352 -0.000001 -0.000000 0.000000 -32.123384 4.541859 31.950378 55.523598 -5.130719 -0.366935 -14.892246 4.087487 -19.588991 0.000002 -0.000000 0.000005 0.000000 -0.000000 -0.000000 -15.368544 -3.453058 -19.898125 58.104447 -1.174388 -4.193203 -32.884147 -8.395833 22.506909 -0.000056 0.000014 0.000001 0.000000 -0.000000 -0.000000 
2.062987 72.345718 -3.259198 -7.265305 -47.534783 -6.691367 2.515901 0.915333 0.631936 5.163604 1.931439 -1.655430 5.148691 1.968008 -1.666211 13.303749 4.448260 0.636991 -12.752698 29.264540 -5.981013 -0.000001 0.000000 -0.000000 0.591008 -1.522614 -2.417756 -30.700334 -1.312083 -38.721070 0.000017 -66.508912 0.000010 8.718841 -13.271870 14.979071 5.246494 6.685104 -76.225519 8.439470 6.703246 -103.118795 2.586201 5.381273 -51.311837 -0.000003 0.000001 -0.000000 -0.392483 20.153843 5.325749 -0.292229 21.311476 8.578932 -2.225098 8.327721 6.202479 -0.000001 0.000001 0.000000 0.559957 1.847499 3.680382 -38.089141 47.540313 54.667222 0.000391 87.470538 -0.000592 -15.051794 14.458409 -13.106033 8.531615 -12.277395 5.179316 -1.921766 -26.072801 -17.001464 -3.113367 -8.655605 -9.962465 0.000002 -0.000001 -0.000001 0.112231 -1.246758 10.287158 0.024407 -0.583374 4.792831 0.006125 -0.291952 2.396356 0.000002 -0.000004 -0.000001 -32.968831 4.288993 32.147470 55.152179 -5.792254 -0.203809 -14.868270 4.120549 -19.532529 -0.000048 -0.000000 -0.000000 -0.000000 -0.000000 -0.000000 -15.262235 -3.952640 -19.458422 57.341726 -1.471954 -3.809108 -33.034866 -8.387546 22.361612 -0.000009 0.000017 0.000007 -0.000000 0.000000 0.000000 
1.498043 72.571365 -3.061326 -6.360244 -44.938898 -6.144876 2.298746 0.424498 0.746404 4.724485 0.929215 -1.500112 4.718706 0.964475 -1.508452 13.195637 4.510763 0.679806 -12.875440 29.549721 -5.863916 0.000001 -0.000001 -0.000000 0.587130 -1.412238 -2.615899 -30.293979 -3.257091 -37.011982 0.000008 -63.522200 0.000028 8.291860 -13.001047 13.826378 5.246492 6.685103 -76.225526 8.439466 6.703245 -103.118795 2.586198 5.381278 -51.311837 0.000001 -0.000001 0.000001 -0.392487 20.153843 5.325750 -0.292225 21.311474 8.578930 -2.225104 8.327723 6.202478 -0.000001 0.000000 -0.000000 0.554356 1.820575 3.572406 -36.810997 48.200864 54.232081 -0.002097 88.296663 0.002110 -17.216267 16.125959 -12.383022 8.531611 -12.277397 5.179319 -1.921763 -26.072799 -17.001466 -3.113372 -8.655607 -9.962466 -0.000001 -0.000002 -0.000001 0.112230 -1.246759 10.287155 0.024412 -0.583376 4.792833 0.006119 -0.291962 2.396352 -0.000001 -0.000002 -0.000000 -33.741722 3.210231 31.002225 54.325040 -6.928815 0.746418 -14.225142 4.045612 -19.545674 -0.000037 -0.000002 -0.000008 0.000000 -0.000000 -0.000000 -13.326927 -5.605178 -19.210833 56.248988 -2.698225 -2.945444 -33.783526 -8.606925 22.408696 0.000001 -0.000014 -0.000008 0.000000 0.000002 -0.000000 
0.590647 73.162956 -2.908168 -5.963225 -39.776693 -5.433471 2.075045 0.163268 0.545923 4.290453 0.355260 -1.829007 4.288108 0.386746 -1.835393 12.878118 4.374775 0.618309 -12.865089 27.503852 -3.817011 -0.000000 -0.000000 -0.000000 0.578404 -1.217700 -2.878292 -29.213259 -7.220245 -35.719905 -0.000009 -61.906034 -0.000011 7.630233 -13.540169 11.896946 5.246493 6.685103 -76.225526 8.439464 6.703248 -103.118795 2.586200 5.381270 -51.311837 -0.000004 -0.000004 -0.000000 -0.392491 20.153843 5.325747 -0.292227 21.311473 8.578932 -2.225105 8.327720 6.202478 -0.000000 -0.000001 -0.000003 0.551843 1.861808 3.436109 -32.933792 47.077263 53.141686 0.015852 91.325592 -0.015678 -19.664243 18.873230 -11.756366 8.531612 -12.277394 5.179317 -1.921768 -26.072801 -17.001461 -3.113371 -8.655606 -9.962469 0.000001 0.000001 -0.000000 0.112229 -1.246757 10.287155 0.024411 -0.583373 4.792830 0.006121 -0.291961 2.396355 0.000001 0.000002 0.000002 -34.024468 1.573685 28.195936 51.785497 -8.028532 2.239506 -12.228237 3.025425 -19.786495 0.000002 -0.000000 -0.000000 -0.000000 -0.000000 0.000000 -9.123631 -8.672570 -18.659068 54.038186 -3.707060 -1.593411 -34.850176 -10.426958 21.597384 -0.000029 -0.000000 0.000010 -0.000000 0.000000 0.000000 
